<mxfile host="app.diagrams.net" modified="2024-03-30T11:10:12.758Z" agent="Mozilla/5.0 (Windows NT 10.0; Win64; x64) AppleWebKit/537.36 (KHTML, like Gecko) Chrome/123.0.0.0 Safari/537.36" etag="r5D0IiPIqVcCN9rhbe_K" version="24.0.8" type="device">
  <diagram name="Stránka-1" id="4guwZnEtddpGRgb-1VzL">
    <mxGraphModel dx="1034" dy="446" grid="1" gridSize="10" guides="1" tooltips="1" connect="1" arrows="1" fold="1" page="1" pageScale="1" pageWidth="850" pageHeight="1100" math="0" shadow="0">
      <root>
        <mxCell id="0" />
        <mxCell id="1" parent="0" />
        <mxCell id="GlvQQ0VwTeoA4q_KAsYF-3" style="edgeStyle=orthogonalEdgeStyle;rounded=0;orthogonalLoop=1;jettySize=auto;html=1;entryX=0;entryY=0.5;entryDx=0;entryDy=0;" parent="1" source="GlvQQ0VwTeoA4q_KAsYF-1" target="GlvQQ0VwTeoA4q_KAsYF-2" edge="1">
          <mxGeometry relative="1" as="geometry" />
        </mxCell>
        <mxCell id="GlvQQ0VwTeoA4q_KAsYF-21" style="edgeStyle=orthogonalEdgeStyle;rounded=0;orthogonalLoop=1;jettySize=auto;html=1;entryX=1;entryY=0.5;entryDx=0;entryDy=0;" parent="1" source="GlvQQ0VwTeoA4q_KAsYF-1" target="GlvQQ0VwTeoA4q_KAsYF-20" edge="1">
          <mxGeometry relative="1" as="geometry" />
        </mxCell>
        <mxCell id="GlvQQ0VwTeoA4q_KAsYF-27" style="edgeStyle=orthogonalEdgeStyle;rounded=0;orthogonalLoop=1;jettySize=auto;html=1;exitX=0.25;exitY=1;exitDx=0;exitDy=0;entryX=0.5;entryY=0;entryDx=0;entryDy=0;" parent="1" source="GlvQQ0VwTeoA4q_KAsYF-1" target="GlvQQ0VwTeoA4q_KAsYF-26" edge="1">
          <mxGeometry relative="1" as="geometry" />
        </mxCell>
        <mxCell id="GlvQQ0VwTeoA4q_KAsYF-28" style="edgeStyle=orthogonalEdgeStyle;rounded=0;orthogonalLoop=1;jettySize=auto;html=1;exitX=0.75;exitY=1;exitDx=0;exitDy=0;entryX=0.5;entryY=0;entryDx=0;entryDy=0;" parent="1" source="GlvQQ0VwTeoA4q_KAsYF-1" target="GlvQQ0VwTeoA4q_KAsYF-18" edge="1">
          <mxGeometry relative="1" as="geometry" />
        </mxCell>
        <mxCell id="GlvQQ0VwTeoA4q_KAsYF-38" style="edgeStyle=orthogonalEdgeStyle;rounded=0;orthogonalLoop=1;jettySize=auto;html=1;entryX=0.5;entryY=0;entryDx=0;entryDy=0;" parent="1" source="GlvQQ0VwTeoA4q_KAsYF-1" target="GlvQQ0VwTeoA4q_KAsYF-37" edge="1">
          <mxGeometry relative="1" as="geometry" />
        </mxCell>
        <mxCell id="GlvQQ0VwTeoA4q_KAsYF-41" style="edgeStyle=orthogonalEdgeStyle;rounded=0;orthogonalLoop=1;jettySize=auto;html=1;exitX=0.75;exitY=0;exitDx=0;exitDy=0;entryX=0.5;entryY=1;entryDx=0;entryDy=0;" parent="1" source="GlvQQ0VwTeoA4q_KAsYF-1" target="GlvQQ0VwTeoA4q_KAsYF-35" edge="1">
          <mxGeometry relative="1" as="geometry" />
        </mxCell>
        <mxCell id="GlvQQ0VwTeoA4q_KAsYF-42" style="edgeStyle=orthogonalEdgeStyle;rounded=0;orthogonalLoop=1;jettySize=auto;html=1;exitX=0.25;exitY=0;exitDx=0;exitDy=0;entryX=0.5;entryY=1;entryDx=0;entryDy=0;" parent="1" source="GlvQQ0VwTeoA4q_KAsYF-1" target="GlvQQ0VwTeoA4q_KAsYF-10" edge="1">
          <mxGeometry relative="1" as="geometry" />
        </mxCell>
        <mxCell id="GlvQQ0VwTeoA4q_KAsYF-1" value="Mechaniky spojené s fobiema" style="rounded=0;whiteSpace=wrap;html=1;fillColor=#3679FF;" parent="1" vertex="1">
          <mxGeometry x="365" y="220" width="120" height="60" as="geometry" />
        </mxCell>
        <mxCell id="GlvQQ0VwTeoA4q_KAsYF-7" style="edgeStyle=orthogonalEdgeStyle;rounded=0;orthogonalLoop=1;jettySize=auto;html=1;entryX=0;entryY=0.5;entryDx=0;entryDy=0;" parent="1" source="GlvQQ0VwTeoA4q_KAsYF-2" target="GlvQQ0VwTeoA4q_KAsYF-6" edge="1">
          <mxGeometry relative="1" as="geometry" />
        </mxCell>
        <mxCell id="GlvQQ0VwTeoA4q_KAsYF-11" style="edgeStyle=orthogonalEdgeStyle;rounded=0;orthogonalLoop=1;jettySize=auto;html=1;entryX=0.5;entryY=1;entryDx=0;entryDy=0;" parent="1" target="GlvQQ0VwTeoA4q_KAsYF-4" edge="1">
          <mxGeometry relative="1" as="geometry">
            <mxPoint x="630.0322580645161" y="230" as="sourcePoint" />
            <mxPoint x="790" y="190" as="targetPoint" />
            <Array as="points">
              <mxPoint x="630" y="200" />
              <mxPoint x="790" y="200" />
            </Array>
          </mxGeometry>
        </mxCell>
        <mxCell id="GlvQQ0VwTeoA4q_KAsYF-12" style="edgeStyle=orthogonalEdgeStyle;rounded=0;orthogonalLoop=1;jettySize=auto;html=1;entryX=0.5;entryY=0;entryDx=0;entryDy=0;" parent="1" source="GlvQQ0VwTeoA4q_KAsYF-2" target="GlvQQ0VwTeoA4q_KAsYF-8" edge="1">
          <mxGeometry relative="1" as="geometry">
            <Array as="points">
              <mxPoint x="630" y="300" />
              <mxPoint x="790" y="300" />
            </Array>
          </mxGeometry>
        </mxCell>
        <mxCell id="GlvQQ0VwTeoA4q_KAsYF-2" value="Strach z výšky" style="rounded=0;whiteSpace=wrap;html=1;fillColor=#CCCCCC;" parent="1" vertex="1">
          <mxGeometry x="570" y="220" width="120" height="60" as="geometry" />
        </mxCell>
        <mxCell id="GlvQQ0VwTeoA4q_KAsYF-4" value="Neviditelná síla" style="rounded=0;whiteSpace=wrap;html=1;" parent="1" vertex="1">
          <mxGeometry x="730" y="120" width="120" height="60" as="geometry" />
        </mxCell>
        <mxCell id="GlvQQ0VwTeoA4q_KAsYF-6" value="Lezecká výstroj" style="rounded=0;whiteSpace=wrap;html=1;" parent="1" vertex="1">
          <mxGeometry x="730" y="220" width="120" height="60" as="geometry" />
        </mxCell>
        <mxCell id="GlvQQ0VwTeoA4q_KAsYF-8" value="Rozdílná výška" style="rounded=0;whiteSpace=wrap;html=1;" parent="1" vertex="1">
          <mxGeometry x="730" y="320" width="120" height="60" as="geometry" />
        </mxCell>
        <mxCell id="GlvQQ0VwTeoA4q_KAsYF-29" style="edgeStyle=orthogonalEdgeStyle;rounded=0;orthogonalLoop=1;jettySize=auto;html=1;exitX=0.75;exitY=0;exitDx=0;exitDy=0;entryX=0.5;entryY=1;entryDx=0;entryDy=0;" parent="1" source="GlvQQ0VwTeoA4q_KAsYF-10" target="GlvQQ0VwTeoA4q_KAsYF-16" edge="1">
          <mxGeometry relative="1" as="geometry" />
        </mxCell>
        <mxCell id="GlvQQ0VwTeoA4q_KAsYF-31" style="edgeStyle=orthogonalEdgeStyle;rounded=0;orthogonalLoop=1;jettySize=auto;html=1;exitX=0.25;exitY=0;exitDx=0;exitDy=0;entryX=0.5;entryY=1;entryDx=0;entryDy=0;" parent="1" source="GlvQQ0VwTeoA4q_KAsYF-10" target="GlvQQ0VwTeoA4q_KAsYF-14" edge="1">
          <mxGeometry relative="1" as="geometry" />
        </mxCell>
        <mxCell id="GlvQQ0VwTeoA4q_KAsYF-10" value="Strach ze tmy" style="rounded=0;whiteSpace=wrap;html=1;fillColor=#CCCCCC;" parent="1" vertex="1">
          <mxGeometry x="245" y="110" width="120" height="60" as="geometry" />
        </mxCell>
        <mxCell id="GlvQQ0VwTeoA4q_KAsYF-14" value="Temná ruka" style="rounded=0;whiteSpace=wrap;html=1;" parent="1" vertex="1">
          <mxGeometry x="160" y="10" width="120" height="60" as="geometry" />
        </mxCell>
        <mxCell id="GlvQQ0VwTeoA4q_KAsYF-16" value="Baterka" style="rounded=0;whiteSpace=wrap;html=1;" parent="1" vertex="1">
          <mxGeometry x="330" y="10" width="120" height="60" as="geometry" />
        </mxCell>
        <mxCell id="GlvQQ0VwTeoA4q_KAsYF-18" value="Ukazatele strachu" style="rounded=0;whiteSpace=wrap;html=1;fillColor=#CCCCCC;" parent="1" vertex="1">
          <mxGeometry x="550" y="340" width="120" height="60" as="geometry" />
        </mxCell>
        <mxCell id="GlvQQ0VwTeoA4q_KAsYF-23" style="edgeStyle=orthogonalEdgeStyle;rounded=0;orthogonalLoop=1;jettySize=auto;html=1;entryX=1;entryY=0.5;entryDx=0;entryDy=0;" parent="1" source="GlvQQ0VwTeoA4q_KAsYF-20" target="GlvQQ0VwTeoA4q_KAsYF-22" edge="1">
          <mxGeometry relative="1" as="geometry">
            <Array as="points">
              <mxPoint x="140" y="230" />
              <mxPoint x="140" y="200" />
            </Array>
          </mxGeometry>
        </mxCell>
        <mxCell id="GlvQQ0VwTeoA4q_KAsYF-25" style="edgeStyle=orthogonalEdgeStyle;rounded=0;orthogonalLoop=1;jettySize=auto;html=1;exitX=0;exitY=0.75;exitDx=0;exitDy=0;entryX=1;entryY=0.5;entryDx=0;entryDy=0;" parent="1" source="GlvQQ0VwTeoA4q_KAsYF-20" target="GlvQQ0VwTeoA4q_KAsYF-24" edge="1">
          <mxGeometry relative="1" as="geometry" />
        </mxCell>
        <mxCell id="GlvQQ0VwTeoA4q_KAsYF-20" value="Strach z neznáma" style="rounded=0;whiteSpace=wrap;html=1;fillColor=#CCCCCC;" parent="1" vertex="1">
          <mxGeometry x="160" y="220" width="120" height="60" as="geometry" />
        </mxCell>
        <mxCell id="GlvQQ0VwTeoA4q_KAsYF-22" value="Rozcestníky" style="rounded=0;whiteSpace=wrap;html=1;" parent="1" vertex="1">
          <mxGeometry y="170" width="120" height="60" as="geometry" />
        </mxCell>
        <mxCell id="GlvQQ0VwTeoA4q_KAsYF-24" value="Minimapa" style="rounded=0;whiteSpace=wrap;html=1;" parent="1" vertex="1">
          <mxGeometry y="270" width="120" height="60" as="geometry" />
        </mxCell>
        <mxCell id="GlvQQ0VwTeoA4q_KAsYF-33" style="edgeStyle=orthogonalEdgeStyle;rounded=0;orthogonalLoop=1;jettySize=auto;html=1;entryX=0.5;entryY=0;entryDx=0;entryDy=0;" parent="1" source="GlvQQ0VwTeoA4q_KAsYF-26" target="GlvQQ0VwTeoA4q_KAsYF-32" edge="1">
          <mxGeometry relative="1" as="geometry" />
        </mxCell>
        <mxCell id="GlvQQ0VwTeoA4q_KAsYF-26" value="Strach z ostrých předmětů" style="rounded=0;whiteSpace=wrap;html=1;fillColor=#CCCCCC;" parent="1" vertex="1">
          <mxGeometry x="190" y="340" width="120" height="60" as="geometry" />
        </mxCell>
        <mxCell id="GlvQQ0VwTeoA4q_KAsYF-32" value="Ostré předměty" style="rounded=0;whiteSpace=wrap;html=1;" parent="1" vertex="1">
          <mxGeometry x="190" y="440" width="120" height="60" as="geometry" />
        </mxCell>
        <mxCell id="GlvQQ0VwTeoA4q_KAsYF-35" value="Strach z vody" style="rounded=0;whiteSpace=wrap;html=1;fillColor=#CCCCCC;" parent="1" vertex="1">
          <mxGeometry x="480" y="110" width="120" height="60" as="geometry" />
        </mxCell>
        <mxCell id="GlvQQ0VwTeoA4q_KAsYF-40" style="edgeStyle=orthogonalEdgeStyle;rounded=0;orthogonalLoop=1;jettySize=auto;html=1;entryX=0.5;entryY=0;entryDx=0;entryDy=0;" parent="1" source="GlvQQ0VwTeoA4q_KAsYF-37" target="GlvQQ0VwTeoA4q_KAsYF-39" edge="1">
          <mxGeometry relative="1" as="geometry" />
        </mxCell>
        <mxCell id="GlvQQ0VwTeoA4q_KAsYF-37" value="Strach ze smrti" style="rounded=0;whiteSpace=wrap;html=1;fillColor=#CCCCCC;" parent="1" vertex="1">
          <mxGeometry x="365" y="340" width="120" height="60" as="geometry" />
        </mxCell>
        <mxCell id="GlvQQ0VwTeoA4q_KAsYF-39" value="Omezený počet životů" style="rounded=0;whiteSpace=wrap;html=1;" parent="1" vertex="1">
          <mxGeometry x="365" y="440" width="120" height="60" as="geometry" />
        </mxCell>
      </root>
    </mxGraphModel>
  </diagram>
</mxfile>
